<?xml version="1.0" standalone="no"?><!DOCTYPE svg PUBLIC "-//W3C//DTD SVG 1.1//EN" "http://www.w3.org/Graphics/SVG/1.1/DTD/svg11.dtd"><svg t="1749688087140" class="icon" viewBox="0 0 1024 1024" version="1.1" xmlns="http://www.w3.org/2000/svg" p-id="1604" xmlns:xlink="http://www.w3.org/1999/xlink" width="200" height="200"><path d="M296.21 169.39h-85.45c-23.5 0-42.72 19.23-42.72 42.72V682.06c-47.19 0-85.45 38.25-85.45 85.45 0 47.19 38.26 85.45 85.45 85.45s85.45-38.26 85.45-85.45V254.84h42.72c23.5 0 42.72-19.23 42.72-42.72s-19.22-42.73-42.72-42.73zM894.33 297.56h-85.45c-23.5 0-42.72 19.23-42.72 42.72v427.23c-47.19 0-85.45 38.25-85.45 85.45 0 47.19 38.26 85.45 85.45 85.45s85.45-38.26 85.45-85.45V383.01h42.72c23.5 0 42.72-19.23 42.72-42.72s-19.22-42.73-42.72-42.73zM595.27 169.39c23.5 0 42.72-19.23 42.72-42.72s-19.22-42.72-42.72-42.72h-85.45c-23.5 0-42.72 19.23-42.72 42.72v469.96c-47.19 0-85.45 38.25-85.45 85.45 0 47.19 38.26 85.45 85.45 85.45 47.19 0 85.45-38.26 85.45-85.45v-341.8h42.72c23.5 0 42.72-19.23 42.72-42.72 0-23.5-19.22-42.72-42.72-42.72h-42.72v-85.45h42.72z" fill="#7cba59" p-id="1605"></path></svg>